<mxfile host="Electron" agent="Mozilla/5.0 (Windows NT 10.0; Win64; x64) AppleWebKit/537.36 (KHTML, like Gecko) draw.io/27.0.2 Chrome/134.0.6998.205 Electron/35.3.0 Safari/537.36" version="27.0.2">
  <diagram id="CZdY7CtGrKhzmkFzMvzD" name="Page-1">
    <mxGraphModel dx="1228" dy="719" grid="1" gridSize="10" guides="1" tooltips="1" connect="1" arrows="1" fold="1" page="1" pageScale="1" pageWidth="850" pageHeight="1100" math="0" shadow="0">
      <root>
        <mxCell id="0" />
        <mxCell id="1" parent="0" />
        <mxCell id="XdzL3nIKbQQ00Zk0sdnf-99" value="" style="rounded=0;whiteSpace=wrap;html=1;strokeWidth=1;fillColor=#DFEAF2;strokeColor=#000000;" vertex="1" parent="1">
          <mxGeometry x="795" y="370" width="70" height="70" as="geometry" />
        </mxCell>
        <mxCell id="XdzL3nIKbQQ00Zk0sdnf-102" value="&lt;font face=&quot;Cascadia Code&quot; style=&quot;font-size: 30px;&quot;&gt;3&lt;/font&gt;" style="rounded=0;whiteSpace=wrap;html=1;strokeWidth=1;fillColor=#DFEAF2;strokeColor=#000000;fontStyle=0;fontColor=#4D4D4D;" vertex="1" parent="1">
          <mxGeometry x="795" y="330" width="70" height="40" as="geometry" />
        </mxCell>
        <mxCell id="XdzL3nIKbQQ00Zk0sdnf-69" style="edgeStyle=orthogonalEdgeStyle;rounded=0;orthogonalLoop=1;jettySize=auto;html=1;exitX=0.5;exitY=1;exitDx=0;exitDy=0;entryX=0.5;entryY=0;entryDx=0;entryDy=0;strokeWidth=4;strokeColor=#4D4D4D;endArrow=blockThin;endFill=1;" edge="1" parent="1" source="XdzL3nIKbQQ00Zk0sdnf-70" target="XdzL3nIKbQQ00Zk0sdnf-77">
          <mxGeometry relative="1" as="geometry">
            <Array as="points">
              <mxPoint x="620" y="490" />
              <mxPoint x="305" y="490" />
            </Array>
          </mxGeometry>
        </mxCell>
        <mxCell id="XdzL3nIKbQQ00Zk0sdnf-71" style="edgeStyle=orthogonalEdgeStyle;rounded=0;orthogonalLoop=1;jettySize=auto;html=1;exitX=0.5;exitY=1;exitDx=0;exitDy=0;entryX=0.5;entryY=0;entryDx=0;entryDy=0;strokeWidth=4;strokeColor=#4D4D4D;endArrow=blockThin;endFill=1;" edge="1" parent="1" source="XdzL3nIKbQQ00Zk0sdnf-97" target="XdzL3nIKbQQ00Zk0sdnf-78">
          <mxGeometry relative="1" as="geometry">
            <Array as="points">
              <mxPoint x="690" y="500" />
              <mxPoint x="500" y="500" />
            </Array>
          </mxGeometry>
        </mxCell>
        <mxCell id="XdzL3nIKbQQ00Zk0sdnf-72" style="edgeStyle=orthogonalEdgeStyle;rounded=0;orthogonalLoop=1;jettySize=auto;html=1;exitX=0.5;exitY=1;exitDx=0;exitDy=0;strokeWidth=4;strokeColor=#4D4D4D;endArrow=blockThin;endFill=1;" edge="1" parent="1" source="XdzL3nIKbQQ00Zk0sdnf-98" target="XdzL3nIKbQQ00Zk0sdnf-79">
          <mxGeometry relative="1" as="geometry">
            <Array as="points">
              <mxPoint x="760" y="510" />
              <mxPoint x="685" y="510" />
            </Array>
          </mxGeometry>
        </mxCell>
        <mxCell id="XdzL3nIKbQQ00Zk0sdnf-73" style="edgeStyle=orthogonalEdgeStyle;rounded=0;orthogonalLoop=1;jettySize=auto;html=1;exitX=0.5;exitY=1;exitDx=0;exitDy=0;entryX=0.5;entryY=0;entryDx=0;entryDy=0;strokeWidth=2;strokeColor=#4D4D4D;endArrow=blockThin;endFill=1;" edge="1" parent="1" source="XdzL3nIKbQQ00Zk0sdnf-99" target="XdzL3nIKbQQ00Zk0sdnf-80">
          <mxGeometry relative="1" as="geometry">
            <Array as="points">
              <mxPoint x="830" y="510" />
              <mxPoint x="880" y="510" />
            </Array>
          </mxGeometry>
        </mxCell>
        <mxCell id="XdzL3nIKbQQ00Zk0sdnf-74" style="edgeStyle=orthogonalEdgeStyle;rounded=0;orthogonalLoop=1;jettySize=auto;html=1;exitX=0.5;exitY=1;exitDx=0;exitDy=0;strokeWidth=2;strokeColor=#4D4D4D;endArrow=blockThin;endFill=1;" edge="1" parent="1" source="XdzL3nIKbQQ00Zk0sdnf-75" target="XdzL3nIKbQQ00Zk0sdnf-81">
          <mxGeometry relative="1" as="geometry">
            <Array as="points">
              <mxPoint x="900" y="500" />
              <mxPoint x="1085" y="500" />
            </Array>
          </mxGeometry>
        </mxCell>
        <mxCell id="XdzL3nIKbQQ00Zk0sdnf-75" value="" style="rounded=0;whiteSpace=wrap;html=1;strokeWidth=1;fillColor=#DFEAF2;" vertex="1" parent="1">
          <mxGeometry x="865" y="370" width="70" height="70" as="geometry" />
        </mxCell>
        <mxCell id="XdzL3nIKbQQ00Zk0sdnf-76" value="" style="rounded=0;whiteSpace=wrap;html=1;strokeWidth=1;fillColor=#DFEAF2;" vertex="1" parent="1">
          <mxGeometry x="935" y="370" width="70" height="70" as="geometry" />
        </mxCell>
        <mxCell id="XdzL3nIKbQQ00Zk0sdnf-77" value="&lt;font style=&quot;font-size: 30px; color: rgb(77, 77, 77);&quot; face=&quot;Cascadia Code&quot;&gt;&quot;Orlan&quot;&lt;/font&gt;" style="text;html=1;align=center;verticalAlign=middle;whiteSpace=wrap;rounded=0;fillColor=#ECF3E7;strokeColor=#ADC8A4;strokeWidth=2;" vertex="1" parent="1">
          <mxGeometry x="230" y="550" width="150" height="50" as="geometry" />
        </mxCell>
        <mxCell id="XdzL3nIKbQQ00Zk0sdnf-78" value="&lt;span style=&quot;font-family: &amp;quot;Cascadia Code&amp;quot;; font-size: 30px;&quot;&gt;&lt;font style=&quot;color: rgb(77, 77, 77);&quot;&gt;&quot;Infinita&quot;&lt;/font&gt;&lt;/span&gt;" style="text;html=1;align=center;verticalAlign=middle;whiteSpace=wrap;rounded=0;fillColor=#ECF3E7;strokeColor=#ADC8A4;strokeWidth=2;container=0;" vertex="1" parent="1">
          <mxGeometry x="400" y="550" width="200" height="50" as="geometry" />
        </mxCell>
        <mxCell id="XdzL3nIKbQQ00Zk0sdnf-79" value="&lt;span style=&quot;font-family: &amp;quot;Cascadia Code&amp;quot;; font-size: 30px;&quot;&gt;&lt;font style=&quot;color: rgb(77, 77, 77);&quot;&gt;&quot;Arto&quot;&lt;/font&gt;&lt;/span&gt;" style="text;html=1;align=center;verticalAlign=middle;whiteSpace=wrap;rounded=0;fillColor=#ECF3E7;strokeColor=#ADC8A4;strokeWidth=2;container=0;" vertex="1" parent="1">
          <mxGeometry x="620" y="551" width="130" height="50" as="geometry" />
        </mxCell>
        <mxCell id="XdzL3nIKbQQ00Zk0sdnf-80" value="&lt;span style=&quot;font-family: &amp;quot;Cascadia Code&amp;quot;; font-size: 30px;&quot;&gt;&lt;font style=&quot;color: rgb(77, 77, 77);&quot;&gt;&quot;CristÃ³bal&quot;&lt;/font&gt;&lt;/span&gt;" style="text;html=1;align=center;verticalAlign=middle;whiteSpace=wrap;rounded=0;fillColor=#ECF3E7;strokeColor=#ADC8A4;strokeWidth=2;" vertex="1" parent="1">
          <mxGeometry x="770" y="551" width="220" height="50" as="geometry" />
        </mxCell>
        <mxCell id="XdzL3nIKbQQ00Zk0sdnf-81" value="&lt;span style=&quot;font-family: &amp;quot;Cascadia Code&amp;quot;; font-size: 30px;&quot;&gt;&lt;font style=&quot;color: rgb(77, 77, 77);&quot;&gt;&quot;Ruffo&quot;&lt;/font&gt;&lt;/span&gt;" style="text;html=1;align=center;verticalAlign=middle;whiteSpace=wrap;rounded=0;fillColor=#ECF3E7;strokeColor=#ADC8A4;strokeWidth=2;container=0;" vertex="1" parent="1">
          <mxGeometry x="1010" y="551" width="150" height="50" as="geometry" />
        </mxCell>
        <mxCell id="XdzL3nIKbQQ00Zk0sdnf-82" value="&lt;span style=&quot;font-family: &amp;quot;Cascadia Code&amp;quot;; font-size: 30px;&quot;&gt;&lt;font style=&quot;color: rgb(77, 77, 77);&quot;&gt;&quot;Heroica&quot;&lt;/font&gt;&lt;/span&gt;" style="text;html=1;align=center;verticalAlign=middle;whiteSpace=wrap;rounded=0;fillColor=#ECF3E7;strokeColor=#ADC8A4;strokeWidth=2;container=0;" vertex="1" parent="1">
          <mxGeometry x="1180" y="551" width="180" height="50" as="geometry" />
        </mxCell>
        <mxCell id="XdzL3nIKbQQ00Zk0sdnf-83" style="edgeStyle=orthogonalEdgeStyle;rounded=0;orthogonalLoop=1;jettySize=auto;html=1;exitX=0.5;exitY=1;exitDx=0;exitDy=0;entryX=0.456;entryY=0.02;entryDx=0;entryDy=0;entryPerimeter=0;strokeWidth=2;strokeColor=#4D4D4D;endArrow=blockThin;endFill=1;" edge="1" parent="1" source="XdzL3nIKbQQ00Zk0sdnf-76" target="XdzL3nIKbQQ00Zk0sdnf-82">
          <mxGeometry relative="1" as="geometry">
            <Array as="points">
              <mxPoint x="970" y="490" />
              <mxPoint x="1262" y="490" />
            </Array>
          </mxGeometry>
        </mxCell>
        <mxCell id="XdzL3nIKbQQ00Zk0sdnf-84" value="str" style="text;html=1;align=left;verticalAlign=middle;whiteSpace=wrap;rounded=0;fontSize=16;fontFamily=Cascadia Code;fontColor=#4D4D4D;" vertex="1" parent="1">
          <mxGeometry x="230" y="530" width="35" height="20" as="geometry" />
        </mxCell>
        <mxCell id="XdzL3nIKbQQ00Zk0sdnf-85" value="str" style="text;html=1;align=left;verticalAlign=middle;whiteSpace=wrap;rounded=0;fontSize=16;fontFamily=Cascadia Code;fontColor=#4D4D4D;" vertex="1" parent="1">
          <mxGeometry x="400" y="530" width="35" height="20" as="geometry" />
        </mxCell>
        <mxCell id="XdzL3nIKbQQ00Zk0sdnf-86" value="str" style="text;html=1;align=left;verticalAlign=middle;whiteSpace=wrap;rounded=0;fontSize=16;fontFamily=Cascadia Code;fontColor=#4D4D4D;" vertex="1" parent="1">
          <mxGeometry x="617.5" y="530" width="35" height="20" as="geometry" />
        </mxCell>
        <mxCell id="XdzL3nIKbQQ00Zk0sdnf-87" value="str" style="text;html=1;align=left;verticalAlign=middle;whiteSpace=wrap;rounded=0;fontSize=16;fontFamily=Cascadia Code;fontColor=#4D4D4D;" vertex="1" parent="1">
          <mxGeometry x="770" y="530" width="35" height="20" as="geometry" />
        </mxCell>
        <mxCell id="XdzL3nIKbQQ00Zk0sdnf-88" value="str" style="text;html=1;align=left;verticalAlign=middle;whiteSpace=wrap;rounded=0;fontSize=16;fontFamily=Cascadia Code;fontColor=#4D4D4D;" vertex="1" parent="1">
          <mxGeometry x="1010" y="530" width="35" height="20" as="geometry" />
        </mxCell>
        <mxCell id="XdzL3nIKbQQ00Zk0sdnf-89" value="str" style="text;html=1;align=left;verticalAlign=middle;whiteSpace=wrap;rounded=0;fontSize=16;fontFamily=Cascadia Code;fontColor=#4D4D4D;" vertex="1" parent="1">
          <mxGeometry x="1180" y="531" width="35" height="20" as="geometry" />
        </mxCell>
        <mxCell id="XdzL3nIKbQQ00Zk0sdnf-91" value="&lt;font face=&quot;Cascadia Code&quot; style=&quot;font-size: 30px; color: rgb(77, 77, 77);&quot;&gt;4&lt;/font&gt;" style="rounded=0;whiteSpace=wrap;html=1;strokeWidth=1;fillColor=#DFEAF2;" vertex="1" parent="1">
          <mxGeometry x="865" y="330" width="70" height="40" as="geometry" />
        </mxCell>
        <mxCell id="XdzL3nIKbQQ00Zk0sdnf-92" value="&lt;font face=&quot;Cascadia Code&quot; style=&quot;font-size: 30px; color: rgb(77, 77, 77);&quot;&gt;5&lt;/font&gt;" style="rounded=0;whiteSpace=wrap;html=1;strokeWidth=1;fillColor=#DFEAF2;" vertex="1" parent="1">
          <mxGeometry x="935" y="330" width="70" height="40" as="geometry" />
        </mxCell>
        <mxCell id="XdzL3nIKbQQ00Zk0sdnf-93" value="list" style="text;html=1;align=left;verticalAlign=middle;whiteSpace=wrap;rounded=0;fontSize=16;fontFamily=Cascadia Code;fontColor=#4D4D4D;container=0;" vertex="1" parent="1">
          <mxGeometry x="585" y="310" width="35" height="20" as="geometry" />
        </mxCell>
        <mxCell id="XdzL3nIKbQQ00Zk0sdnf-94" value="&lt;font style=&quot;font-size: 19px;&quot;&gt;index&lt;/font&gt;" style="text;html=1;align=left;verticalAlign=middle;whiteSpace=wrap;rounded=0;fontSize=16;fontFamily=Cascadia Code;fontColor=#4D4D4D;container=0;" vertex="1" parent="1">
          <mxGeometry x="1015" y="340" width="50" height="20" as="geometry" />
        </mxCell>
        <mxCell id="XdzL3nIKbQQ00Zk0sdnf-95" value="&lt;font style=&quot;font-size: 24px; color: rgb(51, 51, 51);&quot;&gt;cafeterias&lt;/font&gt;" style="rounded=0;whiteSpace=wrap;html=1;fontFamily=Cascadia Code;fontSource=https%3A%2F%2Ffonts.googleapis.com%2Fcss%3Ffamily%3DCascadia%2BCode;strokeColor=#9673a6;strokeWidth=3;fillColor=#E9E3EC;dashed=1;" vertex="1" parent="1">
          <mxGeometry x="305" y="360" width="150" height="50" as="geometry" />
        </mxCell>
        <mxCell id="XdzL3nIKbQQ00Zk0sdnf-96" style="edgeStyle=orthogonalEdgeStyle;rounded=0;orthogonalLoop=1;jettySize=auto;html=1;strokeWidth=2;endArrow=block;endFill=1;strokeColor=#4D4D4D;" edge="1" parent="1">
          <mxGeometry relative="1" as="geometry">
            <mxPoint x="575" y="384.5" as="targetPoint" />
            <mxPoint x="465" y="384.5" as="sourcePoint" />
          </mxGeometry>
        </mxCell>
        <mxCell id="XdzL3nIKbQQ00Zk0sdnf-97" value="" style="rounded=0;whiteSpace=wrap;html=1;strokeWidth=3;fillColor=#f8cecc;strokeColor=#b85450;" vertex="1" parent="1">
          <mxGeometry x="655" y="370" width="70" height="70" as="geometry" />
        </mxCell>
        <mxCell id="XdzL3nIKbQQ00Zk0sdnf-98" value="" style="rounded=0;whiteSpace=wrap;html=1;strokeWidth=3;fillColor=#f8cecc;strokeColor=#b85450;" vertex="1" parent="1">
          <mxGeometry x="725" y="370" width="70" height="70" as="geometry" />
        </mxCell>
        <mxCell id="XdzL3nIKbQQ00Zk0sdnf-100" value="&lt;font face=&quot;Cascadia Code&quot; style=&quot;font-size: 30px;&quot;&gt;1&lt;/font&gt;" style="rounded=0;whiteSpace=wrap;html=1;strokeWidth=3;fillColor=#f8cecc;strokeColor=#b85450;fontStyle=1;fontColor=#AE4132;" vertex="1" parent="1">
          <mxGeometry x="655" y="330" width="70" height="40" as="geometry" />
        </mxCell>
        <mxCell id="XdzL3nIKbQQ00Zk0sdnf-101" value="&lt;font face=&quot;Cascadia Code&quot; style=&quot;font-size: 30px;&quot;&gt;2&lt;/font&gt;" style="rounded=0;whiteSpace=wrap;html=1;strokeWidth=3;fillColor=#f8cecc;strokeColor=#b85450;fontStyle=1;fontColor=#AE4132;" vertex="1" parent="1">
          <mxGeometry x="725" y="330" width="70" height="40" as="geometry" />
        </mxCell>
        <mxCell id="XdzL3nIKbQQ00Zk0sdnf-70" value="" style="rounded=0;whiteSpace=wrap;html=1;strokeWidth=3;fillColor=#f8cecc;strokeColor=#b85450;" vertex="1" parent="1">
          <mxGeometry x="585" y="370" width="70" height="70" as="geometry" />
        </mxCell>
        <mxCell id="XdzL3nIKbQQ00Zk0sdnf-90" value="&lt;font face=&quot;Cascadia Code&quot; style=&quot;font-size: 30px; color: rgb(174, 65, 50);&quot;&gt;&lt;b style=&quot;&quot;&gt;0&lt;/b&gt;&lt;/font&gt;" style="rounded=0;whiteSpace=wrap;html=1;strokeWidth=3;fillColor=#f8cecc;strokeColor=#b85450;" vertex="1" parent="1">
          <mxGeometry x="585" y="330" width="70" height="40" as="geometry" />
        </mxCell>
      </root>
    </mxGraphModel>
  </diagram>
</mxfile>
